<svg width="327" height="327" viewBox="0 0 327 327" fill="none" xmlns="http://www.w3.org/2000/svg">
<path d="M163.129 20C172.414 20 181.313 20.8605 189.825 22.582C183.996 21.8366 177.993 21.4629 171.814 21.4629C147.837 21.4629 126.439 27.202 107.619 38.6807C88.7992 50.0691 73.9602 66.4291 63.1025 87.7598C52.2449 109 46.8154 134.444 46.8154 164.09C46.8154 193.646 52.1996 219.089 62.9668 240.42C73.8245 261.751 88.6635 278.155 107.483 289.634C118.875 296.527 131.228 301.334 144.543 304.055C127.856 301.837 112.562 296.543 98.6611 288.172C79.8412 276.693 65.0022 260.288 54.1445 238.957C43.2869 217.626 37.8584 192.183 37.8584 162.627C37.8584 132.981 43.2869 107.537 54.1445 86.2969C65.0021 64.9663 79.8414 48.6072 98.6611 37.2188C117.572 25.7399 139.061 20 163.129 20ZM181.348 60.1465C186.885 60.7016 192.213 61.7701 197.33 63.3564C205.292 65.7968 212.486 69.4118 218.91 74.2021C225.334 78.9925 230.763 84.8223 235.196 91.6914C239.63 98.5605 242.661 106.514 244.29 115.553H282.853C286.46 129.848 288.264 145.539 288.264 162.627C288.264 181.244 286.122 198.222 281.84 213.56L244.29 213.439C242.571 222.297 239.449 230.161 234.925 237.03C230.491 243.809 225.063 249.548 218.639 254.248C212.215 258.948 205.021 262.519 197.059 264.959C189.187 267.309 180.862 268.484 172.086 268.484C165.687 268.484 159.546 267.833 153.664 266.534C156.749 266.857 159.904 267.021 163.129 267.021C179.053 267.021 193.304 263.045 205.881 255.091C218.548 247.047 228.501 235.296 235.739 219.841C243.068 204.295 246.733 185.223 246.733 162.627C246.733 140.031 243.068 121.005 235.739 105.549C228.501 90.0029 218.548 78.2526 205.881 70.2988C198.31 65.4564 190.132 62.0739 181.348 60.1465Z" fill="white"/>
<path d="M192.988 21.4629C216.965 21.4629 238.364 27.2028 257.184 38.6816C276.094 50.0701 290.979 66.4292 301.836 87.7598C312.694 109 318.123 134.444 318.123 164.09C318.123 193.736 312.694 219.225 301.836 240.556C290.979 261.796 276.095 278.156 257.184 289.635C238.364 301.023 216.965 306.717 192.988 306.717C189.412 306.717 185.892 306.589 182.43 306.338C193.694 305.524 204.271 303.393 214.161 299.938C227.099 295.419 238.591 289.047 248.634 280.822C258.768 272.507 267.047 262.654 273.471 251.266C279.986 239.787 284.374 227.223 286.636 213.575L268.851 213.519C274.01 199.523 276.592 183.048 276.592 164.09C276.592 145.492 274.107 129.314 269.142 115.554H286.636C284.284 100.64 279.76 87.3983 273.064 75.8291C266.368 64.1695 257.908 54.3177 247.684 46.2734C237.46 38.1388 225.923 31.9926 213.075 27.835C203.432 24.6241 193.22 22.6277 182.44 21.8438C185.899 21.5908 189.415 21.4629 192.988 21.4629ZM172.223 59.6953C175.772 59.6953 179.24 59.8943 182.629 60.2852C170.743 61.6693 159.899 65.494 150.1 71.7617C137.523 79.7155 127.571 91.4658 120.242 107.012C113.003 122.467 109.383 141.494 109.383 164.09C109.383 186.686 113.003 205.758 120.242 221.304C127.571 236.759 137.523 248.51 150.1 256.554C159.887 262.743 170.715 266.523 182.584 267.896C179.16 268.285 175.662 268.484 172.087 268.484C156.253 268.484 142.003 264.507 129.335 256.554C116.668 248.6 106.669 236.85 99.3403 221.304C92.1019 205.758 88.4829 186.686 88.4829 164.09C88.4829 141.675 92.1019 122.694 99.3403 107.147C106.669 91.6013 116.623 79.806 129.2 71.7617C141.867 63.7176 156.208 59.6953 172.223 59.6953Z" fill="white"/>
<path d="M258.405 164.09C258.405 193.736 252.976 219.225 242.119 240.555C231.261 261.796 216.377 278.155 197.467 289.634C178.647 301.023 157.248 306.717 133.27 306.717C109.203 306.717 87.7135 301.023 68.803 289.634C49.983 278.155 35.1442 261.751 24.2865 240.42C13.4288 219.089 8 193.646 8 164.09C8 134.444 13.4288 109 24.2865 87.7601C35.1442 66.4293 49.983 50.0696 68.803 38.6812C87.7135 27.2023 109.203 21.4629 133.27 21.4629C157.248 21.4629 178.647 27.2023 197.467 38.6812C216.377 50.0696 231.261 66.4293 242.119 87.7601C252.976 109 258.405 134.444 258.405 164.09ZM216.875 164.09C216.875 141.494 213.21 122.468 205.881 107.012C198.643 91.4658 188.69 79.7158 176.023 71.762C163.446 63.7177 149.195 59.6956 133.27 59.6956C117.255 59.6956 102.959 63.7177 90.3827 71.762C77.8058 79.7158 67.853 91.4658 60.524 107.012C53.2856 122.468 49.6663 141.494 49.6663 164.09C49.6663 186.686 53.2856 205.757 60.524 221.303C67.853 236.759 77.8058 248.509 90.3827 256.553C102.959 264.507 117.255 268.484 133.27 268.484C149.195 268.484 163.446 264.507 176.023 256.553C188.69 248.509 198.643 236.759 205.881 221.303C213.21 205.757 216.875 186.686 216.875 164.09Z" fill="white"/>
</svg>
